<?xml version="1.0" standalone="no"?>
<!DOCTYPE svg PUBLIC "-//W3C//DTD SVG 20010904//EN"
 "http://www.w3.org/TR/2001/REC-SVG-20010904/DTD/svg10.dtd">
<svg version="1.0" xmlns="http://www.w3.org/2000/svg"
 width="310.000000pt" height="310.000000pt" viewBox="0 0 310.000000 310.000000"
 preserveAspectRatio="xMidYMid meet">
<metadata>
Created by potrace 1.11, written by Peter Selinger 2001-2013
</metadata>
<g transform="translate(0.000000,310.000000) scale(0.100000,-0.100000)"
fill="#000000" stroke="none">
<path d="M690 3089 c0 -5 4 -8 8 -5 4 2 8 -4 8 -13 0 -13 -8 -18 -23 -18 -13
0 -23 5 -23 11 0 6 -5 4 -10 -4 -9 -13 -11 -13 -20 0 -5 9 -10 10 -10 3 0 -6
-8 -10 -17 -8 -10 1 -26 -2 -35 -6 -10 -6 -19 -5 -23 1 -4 6 -12 7 -18 3 -6
-4 -18 -8 -27 -8 -8 -1 -33 -5 -55 -10 -22 -5 -45 -9 -51 -10 -6 0 -20 -7 -30
-15 -16 -13 -17 -13 -10 0 4 8 1 7 -8 -4 -9 -11 -20 -15 -28 -10 -7 4 -10 4
-6 0 4 -5 -5 -19 -18 -31 -28 -26 -28 -30 -8 -60 19 -27 18 -40 -3 -24 -11 10
-14 10 -9 2 9 -16 -8 -17 -36 -2 -16 8 -19 8 -13 -1 5 -8 3 -11 -6 -8 -8 3
-23 -2 -33 -11 -12 -10 -16 -11 -11 -2 5 9 -1 7 -19 -4 -14 -9 -24 -20 -21
-24 2 -4 -5 -14 -16 -21 -10 -8 -19 -20 -19 -27 0 -7 -5 -13 -11 -13 -5 0 -7
-4 -4 -10 3 -5 1 -10 -5 -10 -6 0 -8 -4 -5 -10 3 -5 1 -10 -5 -10 -6 0 -9 -4
-5 -9 3 -5 0 -13 -6 -16 -5 -4 -8 -13 -5 -21 3 -8 1 -14 -5 -14 -6 0 -9 -7 -5
-15 3 -8 1 -15 -5 -15 -6 0 -7 -4 -4 -10 3 -5 2 -10 -4 -10 -5 0 -8 -11 -5
-25 3 -15 0 -25 -7 -25 -6 0 -9 -9 -6 -20 3 -11 1 -22 -3 -25 -11 -7 -10 -164
1 -171 5 -3 9 -10 9 -15 0 -6 -5 -7 -12 -3 -7 5 -8 3 -2 -7 10 -16 12 -27 20
-84 3 -22 11 -43 17 -47 9 -6 8 -8 -2 -8 -9 0 -10 -4 -4 -12 8 -12 11 -25 15
-75 1 -7 6 -13 11 -13 6 0 7 -3 4 -7 -4 -3 -2 -12 4 -20 9 -9 8 -13 0 -13 -6
0 -11 -5 -11 -12 0 -6 3 -8 7 -5 8 9 34 -13 28 -23 -7 -11 23 -80 34 -80 6 0
12 -8 15 -18 3 -9 15 -23 27 -30 12 -8 18 -9 15 -3 -4 6 6 4 21 -4 21 -11 29
-12 35 -2 4 7 8 8 8 3 0 -5 7 -3 15 4 9 7 18 10 22 6 3 -3 0 -6 -7 -6 -7 0
-11 -2 -8 -6 3 -3 27 9 54 25 26 17 45 31 41 31 -3 0 7 13 23 29 15 17 31 39
35 50 3 12 11 21 16 21 6 0 8 3 6 8 -3 4 3 14 12 22 9 8 15 13 14 11 -2 -2 2
-10 8 -18 9 -10 8 -13 -1 -13 -9 0 -10 -3 -1 -13 7 -9 7 -17 0 -24 -7 -7 -5
-15 6 -27 9 -9 13 -20 10 -26 -3 -5 -1 -10 5 -10 6 0 8 -5 5 -10 -3 -6 1 -13
9 -16 9 -3 14 -10 11 -14 -3 -4 2 -10 10 -14 8 -3 15 -13 15 -21 0 -9 5 -13
10 -10 9 6 15 -8 11 -29 -1 -5 7 -6 19 -3 11 3 20 2 20 -3 0 -6 55 -12 113
-11 16 0 67 -66 67 -88 0 -5 5 -11 11 -13 9 -3 15 -22 18 -51 1 -5 6 -5 13 -1
7 5 8 3 4 -5 -5 -7 0 -21 9 -31 9 -10 14 -23 11 -29 -4 -5 -2 -12 4 -16 6 -4
8 -10 5 -15 -3 -5 -1 -11 5 -15 6 -4 8 -11 5 -16 -4 -5 -1 -9 4 -9 6 0 11 -11
11 -24 0 -14 5 -28 11 -31 6 -4 8 -13 5 -21 -3 -8 -1 -14 4 -14 5 0 7 -7 4
-15 -4 -9 0 -15 7 -15 11 0 11 -2 -1 -10 -12 -8 -12 -11 2 -27 8 -10 15 -25
16 -33 0 -8 4 -40 9 -71 5 -31 9 -66 8 -78 -1 -11 1 -21 5 -21 3 0 6 -9 7 -20
1 -11 -2 -20 -7 -20 -5 0 -7 -7 -4 -15 4 -9 0 -15 -7 -15 -12 0 -12 -2 -1 -9
11 -7 10 -9 -3 -15 -9 -3 -13 -10 -10 -16 3 -5 1 -10 -6 -10 -7 0 -10 -3 -6
-6 9 -9 -22 -66 -32 -59 -5 3 -7 -4 -4 -15 3 -11 1 -20 -5 -20 -5 0 -13 -11
-16 -25 -4 -14 -10 -25 -15 -25 -4 0 -7 -10 -5 -22 1 -13 3 -26 3 -30 1 -5 8
-8 16 -8 8 0 15 -5 15 -11 0 -5 -4 -7 -10 -4 -9 5 -14 -6 -12 -26 1 -3 -6 -6
-14 -7 -7 -1 -21 -3 -29 -4 -8 -1 -17 -8 -19 -15 -3 -8 -9 -12 -14 -9 -4 2 -9
-5 -11 -17 -6 -46 -3 -80 9 -87 6 -4 11 -10 11 -14 -3 -20 1 -26 15 -26 8 0
13 -4 9 -9 -3 -5 4 -12 15 -16 11 -3 20 -13 20 -21 0 -8 5 -12 10 -9 6 3 13
-1 16 -9 3 -9 12 -16 20 -16 8 0 14 -4 14 -10 0 -5 7 -10 16 -10 8 0 13 -4 10
-8 -2 -4 15 -18 40 -31 24 -13 42 -27 39 -30 -2 -4 6 -8 17 -8 11 -1 26 -10
32 -19 8 -11 18 -14 26 -9 8 5 11 4 7 -2 -3 -5 9 -16 28 -23 19 -8 35 -18 35
-23 0 -5 7 -7 15 -3 10 3 15 -1 15 -12 0 -15 2 -15 10 -2 7 11 10 11 10 2 0
-7 5 -10 10 -7 6 3 10 2 10 -3 0 -6 7 -13 16 -16 8 -3 13 -2 10 3 -4 5 3 7 14
4 11 -3 17 -10 13 -17 -4 -6 1 -5 10 3 12 9 17 10 17 2 0 -7 4 -10 9 -7 5 4 8
-2 6 -11 -1 -10 2 -24 8 -30 6 -9 6 -13 -3 -13 -8 0 -9 -4 -3 -12 5 -7 8 -30
8 -51 -1 -20 2 -37 7 -37 5 0 6 -6 1 -12 -13 -22 -14 -48 -1 -48 9 0 9 -3 0
-12 -15 -15 -16 -32 -1 -22 8 4 8 1 1 -12 -15 -30 -3 -44 38 -44 30 0 40 5 45
20 3 11 3 24 0 30 -3 5 -1 10 5 10 7 0 10 6 7 14 -3 8 0 17 7 19 9 4 12 15 8
33 -3 15 -1 25 4 21 9 -5 14 10 17 55 1 9 6 16 11 15 6 -1 10 5 11 13 1 34 23
56 61 58 20 2 41 5 46 8 9 6 44 14 68 17 8 1 17 5 20 8 10 12 93 48 100 44 4
-3 11 2 14 11 3 8 10 13 15 10 5 -3 11 1 15 9 3 8 11 15 18 15 7 0 30 16 51
35 21 19 43 35 48 35 6 0 8 4 4 9 -3 6 3 14 12 20 10 6 14 11 9 11 -5 0 1 9
14 20 13 11 17 20 10 20 -9 0 -10 3 -1 13 8 10 7 17 -2 27 -7 8 -8 10 -1 7 13
-7 26 40 14 48 -14 9 -3 78 16 92 10 7 14 13 8 13 -5 0 -3 4 5 9 16 10 22 61
8 61 -5 0 -5 6 2 13 8 10 7 17 -2 26 -14 14 -16 43 -2 53 6 5 5 8 -2 8 -7 0
-13 9 -13 21 0 13 -4 18 -12 13 -8 -5 -9 -2 -5 9 4 11 1 17 -7 17 -7 0 -13 7
-13 15 0 12 3 12 16 3 15 -12 -6 17 -37 50 -9 10 -10 18 -2 26 5 7 7 16 3 20
-13 13 -11 35 2 30 9 -4 12 1 11 13 -2 10 2 21 7 25 7 4 7 11 -1 20 -9 11 -9
17 0 26 6 6 13 22 15 34 2 12 9 26 16 30 9 6 8 8 -2 8 -11 0 -11 4 2 18 10 10
14 22 10 25 -3 4 0 7 8 7 11 0 11 2 -1 10 -8 5 -10 10 -5 10 11 0 41 68 37 83
-1 4 3 7 9 7 6 0 9 6 6 14 -3 8 1 17 9 20 8 3 13 9 12 13 -2 8 43 104 53 113
3 3 11 21 19 40 8 19 21 40 30 47 8 7 11 13 7 13 -5 0 1 13 13 30 12 16 19 34
15 39 -3 5 4 12 15 16 11 3 20 9 20 13 0 4 35 7 77 6 48 -1 88 4 103 12 14 8
21 14 15 14 -5 0 1 10 13 23 12 12 31 32 41 44 l18 23 11 -25 c6 -14 16 -25
22 -25 6 0 9 -4 5 -9 -3 -5 2 -16 10 -24 8 -9 15 -20 15 -26 0 -6 5 -11 10
-11 6 0 10 -7 10 -16 0 -8 4 -13 8 -10 5 3 14 -4 22 -14 8 -10 17 -17 22 -14
4 3 8 1 8 -5 0 -5 11 -8 25 -6 14 1 25 -2 25 -6 0 -11 23 -7 32 6 5 6 8 6 8
-2 0 -12 17 -12 38 0 7 5 12 3 12 -5 0 -8 3 -9 8 -3 4 6 26 19 50 29 23 11 42
23 42 28 0 5 4 6 10 3 6 -4 7 1 3 11 -5 13 -3 15 7 9 10 -6 12 -3 8 13 -4 12
-2 22 4 22 5 0 6 5 3 10 -3 6 -1 10 5 10 7 0 9 7 6 16 -3 8 -2 12 4 9 6 -4 10
6 10 22 0 16 5 34 12 41 9 9 9 12 -1 12 -10 0 -11 3 -2 13 6 8 8 17 4 20 -3 4
-2 7 3 7 9 0 13 18 15 73 0 11 5 15 12 10 7 -4 6 0 -2 10 -7 9 -9 17 -4 17 5
0 9 16 8 35 -1 19 1 35 4 35 3 0 7 11 7 25 1 16 -2 23 -10 19 -6 -3 -4 0 4 8
9 7 14 25 12 42 -3 21 0 26 10 20 10 -6 11 -5 1 7 -10 12 -10 18 0 29 10 10 9
11 -3 5 -13 -8 -13 -7 -1 8 10 13 10 17 1 17 -9 0 -9 4 -2 13 6 6 9 27 8 45
-1 18 1 35 5 38 5 3 5 12 2 21 -5 11 -3 14 6 8 10 -6 11 -3 2 13 -7 13 -7 23
-1 27 5 3 6 13 3 22 -5 11 -3 14 6 8 10 -6 11 -3 2 14 -9 16 -9 21 1 21 10 0
10 2 -1 9 -8 5 -9 11 -3 15 14 8 15 181 2 207 -10 17 -9 20 2 14 10 -6 10 -5
1 5 -6 7 -9 19 -6 26 3 8 1 14 -4 14 -5 0 -17 16 -26 35 -9 20 -24 38 -32 41
-8 4 -13 10 -10 14 3 4 -13 15 -35 24 -48 19 -53 20 -44 4 5 -7 3 -8 -5 -3
-15 9 -93 -24 -85 -36 3 -5 1 -9 -4 -9 -18 0 -99 -85 -94 -99 3 -8 0 -11 -5
-8 -6 4 -16 -5 -23 -18 -7 -14 -17 -25 -22 -25 -4 0 -8 -5 -8 -11 0 -7 -10
-20 -22 -30 -11 -11 -16 -19 -9 -19 7 0 9 -5 6 -11 -5 -6 -12 -4 -20 8 -9 13
-10 22 -3 30 8 9 7 13 -3 13 -11 0 -11 2 1 10 10 6 11 10 3 10 -7 0 -13 10
-13 23 -1 21 -30 71 -30 51 0 -5 -5 -1 -11 9 -5 9 -17 17 -24 17 -8 0 -15 5
-15 11 0 5 -4 8 -9 4 -5 -3 -12 -1 -16 5 -4 6 -10 8 -15 5 -5 -3 -13 3 -19 12
-5 10 -12 17 -15 15 -11 -5 -56 10 -56 19 0 5 -7 9 -15 9 -26 0 -65 23 -58 34
3 6 2 8 -2 3 -5 -4 -17 1 -28 10 -11 10 -17 12 -13 6 4 -7 2 -13 -3 -13 -6 0
-11 5 -11 10 0 6 -6 10 -13 10 -7 0 -24 10 -37 23 -14 12 -25 21 -25 19 0 -2
-7 -1 -15 3 -9 3 -290 4 -624 3 -478 -2 -610 -6 -614 -16 -2 -6 -8 -10 -13 -6
-5 3 -9 0 -9 -6 0 -6 -4 -8 -10 -5 -5 3 -10 1 -10 -4 0 -6 -6 -11 -14 -11 -8
0 -18 -5 -22 -12 -5 -7 -3 -8 6 -3 8 5 11 4 6 -3 -3 -6 -15 -9 -26 -7 -11 2
-20 0 -20 -6 0 -5 -6 -9 -14 -9 -8 0 -16 -5 -18 -12 -3 -7 -12 -9 -23 -4 -14
5 -16 9 -7 14 8 6 6 12 -7 24 -11 9 -22 13 -26 10 -3 -4 -3 1 1 11 4 11 0 19
-10 23 -9 3 -13 10 -10 15 3 5 -6 9 -20 9 -14 0 -26 -5 -26 -11z"/>
</g>
</svg>
